<svg width="23" height="19" viewBox="0 0 23 19" fill="none" xmlns="http://www.w3.org/2000/svg">
<rect x="0.475" y="0.475" width="21.375" height="18.05" stroke="white" stroke-width="0.95"/>
<line x1="7.6" y1="0.474976" x2="7.6" y2="18.525" stroke="white" stroke-width="0.95"/>
<line x1="14.725" y1="0.474976" x2="14.725" y2="18.525" stroke="white" stroke-width="0.95"/>
<line x1="2.375" y1="2.85001" x2="5.7" y2="2.85001" stroke="white" stroke-width="0.95"/>
<line x1="9.5" y1="2.85001" x2="12.825" y2="2.85001" stroke="white" stroke-width="0.95"/>
<line x1="16.625" y1="2.85001" x2="19.95" y2="2.85001" stroke="white" stroke-width="0.95"/>
<line x1="2.375" y1="4.275" x2="5.7" y2="4.275" stroke="white" stroke-width="0.95"/>
<line x1="9.5" y1="4.275" x2="12.825" y2="4.275" stroke="white" stroke-width="0.95"/>
<line x1="16.625" y1="4.275" x2="19.95" y2="4.275" stroke="white" stroke-width="0.95"/>
<line x1="2.375" y1="5.69999" x2="5.7" y2="5.69999" stroke="white" stroke-width="0.95"/>
<line x1="2.84998" y1="15.4375" x2="5.22498" y2="15.4375" stroke="white" stroke-width="2.375"/>
<line x1="9.97498" y1="15.4375" x2="12.35" y2="15.4375" stroke="white" stroke-width="2.375"/>
<line x1="17.1" y1="15.4375" x2="19.475" y2="15.4375" stroke="white" stroke-width="2.375"/>
<line x1="9.5" y1="5.69999" x2="12.825" y2="5.69999" stroke="white" stroke-width="0.95"/>
<line x1="16.625" y1="5.69999" x2="19.95" y2="5.69999" stroke="white" stroke-width="0.95"/>
</svg>
