<svg width="21" height="16" viewBox="0 0 21 16" fill="none" xmlns="http://www.w3.org/2000/svg">
<path d="M20.0002 8.95044C20.5525 8.95044 21.0002 8.50272 21.0002 7.95044C21.0002 7.39815 20.5525 6.95044 20.0002 6.95044V8.95044ZM0.292973 7.24333C-0.0975513 7.63386 -0.0975513 8.26702 0.292973 8.65755L6.65693 15.0215C7.04746 15.412 7.68062 15.412 8.07115 15.0215C8.46167 14.631 8.46167 13.9978 8.07115 13.6073L2.41429 7.95044L8.07115 2.29359C8.46167 1.90306 8.46167 1.2699 8.07115 0.879372C7.68062 0.488847 7.04746 0.488847 6.65693 0.879372L0.292973 7.24333ZM20.0002 6.95044L1.00008 6.95044V8.95044L20.0002 8.95044V6.95044Z" fill="white"/>
</svg>
